<mxfile host="app.diagrams.net" modified="2023-03-25T07:33:38.438Z" agent="Mozilla/5.0 (Macintosh; Intel Mac OS X 10.15; rv:109.0) Gecko/20100101 Firefox/111.0" etag="yzwlwCWsp6ueyW-72ZVU" version="21.1.1" type="github">
  <diagram name="Page-1" id="e7e014a7-5840-1c2e-5031-d8a46d1fe8dd">
    <mxGraphModel dx="1327" dy="772" grid="1" gridSize="10" guides="1" tooltips="1" connect="1" arrows="1" fold="1" page="1" pageScale="1" pageWidth="1169" pageHeight="826" background="none" math="0" shadow="0">
      <root>
        <mxCell id="0" />
        <mxCell id="1" parent="0" />
        <mxCell id="2" value="User" style="swimlane;whiteSpace=wrap" parent="1" vertex="1">
          <mxGeometry x="164.5" y="128" width="280" height="732" as="geometry" />
        </mxCell>
        <mxCell id="XKiaGi2St14nV2Fpxqwa-43" style="edgeStyle=orthogonalEdgeStyle;rounded=0;orthogonalLoop=1;jettySize=auto;html=1;strokeColor=#FF0000;" edge="1" parent="2" source="5" target="XKiaGi2St14nV2Fpxqwa-41">
          <mxGeometry relative="1" as="geometry" />
        </mxCell>
        <mxCell id="5" value="" style="ellipse;shape=startState;fillColor=#000000;strokeColor=#ff0000;" parent="2" vertex="1">
          <mxGeometry x="100" y="40" width="30" height="30" as="geometry" />
        </mxCell>
        <mxCell id="12" value="" style="edgeStyle=elbowEdgeStyle;elbow=horizontal;strokeColor=#FF0000;endArrow=open;endFill=1;rounded=0" parent="2" source="10" edge="1">
          <mxGeometry width="100" height="100" relative="1" as="geometry">
            <mxPoint x="160" y="290" as="sourcePoint" />
            <mxPoint x="60" y="135" as="targetPoint" />
            <Array as="points">
              <mxPoint x="30" y="250" />
            </Array>
          </mxGeometry>
        </mxCell>
        <mxCell id="XKiaGi2St14nV2Fpxqwa-41" value="Masuk halaman game isyarat" style="rounded=1;whiteSpace=wrap;html=1;arcSize=40;fontColor=#000000;fillColor=#ffffc0;strokeColor=#ff0000;" vertex="1" parent="2">
          <mxGeometry x="55" y="102" width="120" height="40" as="geometry" />
        </mxCell>
        <mxCell id="XKiaGi2St14nV2Fpxqwa-46" value="Memilih sub game isyarat" style="rounded=1;whiteSpace=wrap;html=1;arcSize=40;fontColor=#000000;fillColor=#ffffc0;strokeColor=#ff0000;" vertex="1" parent="2">
          <mxGeometry x="55" y="182" width="120" height="40" as="geometry" />
        </mxCell>
        <mxCell id="XKiaGi2St14nV2Fpxqwa-52" value="Men klik gambar level game" style="rounded=1;whiteSpace=wrap;html=1;arcSize=40;fontColor=#000000;fillColor=#ffffc0;strokeColor=#ff0000;" vertex="1" parent="2">
          <mxGeometry x="55" y="252" width="120" height="40" as="geometry" />
        </mxCell>
        <mxCell id="XKiaGi2St14nV2Fpxqwa-61" value="&lt;div&gt;Menginputkan jawaban&lt;/div&gt;" style="rounded=1;whiteSpace=wrap;html=1;arcSize=40;fontColor=#000000;fillColor=#ffffc0;strokeColor=#ff0000;" vertex="1" parent="2">
          <mxGeometry x="55" y="352" width="120" height="40" as="geometry" />
        </mxCell>
        <mxCell id="3" value="System" style="swimlane;whiteSpace=wrap" parent="1" vertex="1">
          <mxGeometry x="444.5" y="128" width="280" height="732" as="geometry" />
        </mxCell>
        <mxCell id="XKiaGi2St14nV2Fpxqwa-44" value="Tampilkan halaman game isyarat" style="rounded=1;whiteSpace=wrap;html=1;arcSize=40;fontColor=#000000;fillColor=#ffffc0;strokeColor=#ff0000;" vertex="1" parent="3">
          <mxGeometry x="80.5" y="102" width="120" height="40" as="geometry" />
        </mxCell>
        <mxCell id="XKiaGi2St14nV2Fpxqwa-50" value="Menampilkan halaman detial sub game isyarat" style="rounded=1;whiteSpace=wrap;html=1;arcSize=40;fontColor=#000000;fillColor=#ffffc0;strokeColor=#ff0000;" vertex="1" parent="3">
          <mxGeometry x="80.5" y="182" width="120" height="40" as="geometry" />
        </mxCell>
        <mxCell id="XKiaGi2St14nV2Fpxqwa-54" value="Tersedia" style="rhombus;whiteSpace=wrap;html=1;fontColor=#000000;fillColor=#ffffc0;strokeColor=#ff0000;" vertex="1" parent="3">
          <mxGeometry x="100" y="262" width="80" height="40" as="geometry" />
        </mxCell>
        <mxCell id="XKiaGi2St14nV2Fpxqwa-55" value="no" style="edgeStyle=orthogonalEdgeStyle;html=1;align=left;verticalAlign=bottom;endArrow=open;endSize=8;strokeColor=#ff0000;rounded=0;exitX=1;exitY=0.5;exitDx=0;exitDy=0;" edge="1" source="XKiaGi2St14nV2Fpxqwa-54" parent="3" target="XKiaGi2St14nV2Fpxqwa-59">
          <mxGeometry x="-1" relative="1" as="geometry">
            <mxPoint x="280" y="282" as="targetPoint" />
          </mxGeometry>
        </mxCell>
        <mxCell id="XKiaGi2St14nV2Fpxqwa-56" value="yes" style="edgeStyle=orthogonalEdgeStyle;html=1;align=left;verticalAlign=top;endArrow=open;endSize=8;strokeColor=#ff0000;rounded=0;" edge="1" source="XKiaGi2St14nV2Fpxqwa-54" parent="3" target="XKiaGi2St14nV2Fpxqwa-57">
          <mxGeometry x="-1" relative="1" as="geometry">
            <mxPoint x="140" y="362" as="targetPoint" />
          </mxGeometry>
        </mxCell>
        <mxCell id="XKiaGi2St14nV2Fpxqwa-57" value="Muncul pop up pertanyaan game" style="rounded=1;whiteSpace=wrap;html=1;arcSize=40;fontColor=#000000;fillColor=#ffffc0;strokeColor=#ff0000;" vertex="1" parent="3">
          <mxGeometry x="20.5" y="352" width="120" height="40" as="geometry" />
        </mxCell>
        <mxCell id="XKiaGi2St14nV2Fpxqwa-59" value="Muncul snackbar &quot;Selesaikan level sebelumnya&quot;" style="rounded=1;whiteSpace=wrap;html=1;arcSize=40;fontColor=#000000;fillColor=#ffffc0;strokeColor=#ff0000;" vertex="1" parent="3">
          <mxGeometry x="155.5" y="352" width="120" height="40" as="geometry" />
        </mxCell>
        <mxCell id="XKiaGi2St14nV2Fpxqwa-65" value="Validasi Jawaban" style="rhombus;whiteSpace=wrap;html=1;fontColor=#000000;fillColor=#ffffc0;strokeColor=#ff0000;" vertex="1" parent="3">
          <mxGeometry x="100" y="412" width="80" height="40" as="geometry" />
        </mxCell>
        <mxCell id="XKiaGi2St14nV2Fpxqwa-66" value="no" style="edgeStyle=orthogonalEdgeStyle;html=1;align=left;verticalAlign=bottom;endArrow=open;endSize=8;strokeColor=#ff0000;rounded=0;entryX=0.5;entryY=0.25;entryDx=0;entryDy=0;entryPerimeter=0;exitX=1;exitY=0.5;exitDx=0;exitDy=0;" edge="1" source="XKiaGi2St14nV2Fpxqwa-65" parent="3" target="XKiaGi2St14nV2Fpxqwa-72">
          <mxGeometry x="-1" relative="1" as="geometry">
            <mxPoint x="280" y="432" as="targetPoint" />
          </mxGeometry>
        </mxCell>
        <mxCell id="XKiaGi2St14nV2Fpxqwa-67" value="yes" style="edgeStyle=orthogonalEdgeStyle;html=1;align=left;verticalAlign=top;endArrow=open;endSize=8;strokeColor=#ff0000;rounded=0;entryX=0.5;entryY=0;entryDx=0;entryDy=0;" edge="1" source="XKiaGi2St14nV2Fpxqwa-65" parent="3" target="XKiaGi2St14nV2Fpxqwa-70">
          <mxGeometry x="-1" relative="1" as="geometry">
            <mxPoint x="140.5" y="512" as="targetPoint" />
          </mxGeometry>
        </mxCell>
        <mxCell id="XKiaGi2St14nV2Fpxqwa-70" value="Muncul snackbar jawaban benar dan unlock level berikutnya" style="rounded=1;whiteSpace=wrap;html=1;arcSize=40;fontColor=#000000;fillColor=#ffffc0;strokeColor=#ff0000;" vertex="1" parent="3">
          <mxGeometry x="5.5" y="512" width="120" height="40" as="geometry" />
        </mxCell>
        <mxCell id="XKiaGi2St14nV2Fpxqwa-71" value="" style="edgeStyle=orthogonalEdgeStyle;html=1;verticalAlign=bottom;endArrow=open;endSize=8;strokeColor=#ff0000;rounded=0;entryX=0;entryY=0.5;entryDx=0;entryDy=0;" edge="1" source="XKiaGi2St14nV2Fpxqwa-70" parent="3" target="XKiaGi2St14nV2Fpxqwa-74">
          <mxGeometry relative="1" as="geometry">
            <mxPoint x="65.5" y="612" as="targetPoint" />
          </mxGeometry>
        </mxCell>
        <mxCell id="XKiaGi2St14nV2Fpxqwa-72" value="Muncul snackbar jawaban salah" style="rounded=1;whiteSpace=wrap;html=1;arcSize=40;fontColor=#000000;fillColor=#ffffc0;strokeColor=#ff0000;" vertex="1" parent="3">
          <mxGeometry x="155.5" y="512" width="120" height="40" as="geometry" />
        </mxCell>
        <mxCell id="XKiaGi2St14nV2Fpxqwa-74" value="" style="ellipse;html=1;shape=endState;fillColor=#000000;strokeColor=#ff0000;" vertex="1" parent="3">
          <mxGeometry x="125.5" y="622" width="30" height="30" as="geometry" />
        </mxCell>
        <mxCell id="XKiaGi2St14nV2Fpxqwa-42" value="" style="edgeStyle=orthogonalEdgeStyle;html=1;verticalAlign=bottom;endArrow=open;endSize=8;strokeColor=#ff0000;rounded=0;entryX=0;entryY=0.5;entryDx=0;entryDy=0;" edge="1" source="XKiaGi2St14nV2Fpxqwa-41" parent="1" target="XKiaGi2St14nV2Fpxqwa-44">
          <mxGeometry relative="1" as="geometry">
            <mxPoint x="279.5" y="330" as="targetPoint" />
          </mxGeometry>
        </mxCell>
        <mxCell id="XKiaGi2St14nV2Fpxqwa-45" value="" style="edgeStyle=orthogonalEdgeStyle;html=1;verticalAlign=bottom;endArrow=open;endSize=8;strokeColor=#ff0000;rounded=0;entryX=0.5;entryY=0;entryDx=0;entryDy=0;" edge="1" source="XKiaGi2St14nV2Fpxqwa-44" parent="1" target="XKiaGi2St14nV2Fpxqwa-46">
          <mxGeometry relative="1" as="geometry">
            <mxPoint x="585" y="330" as="targetPoint" />
            <Array as="points">
              <mxPoint x="585" y="290" />
              <mxPoint x="280" y="290" />
            </Array>
          </mxGeometry>
        </mxCell>
        <mxCell id="XKiaGi2St14nV2Fpxqwa-47" value="" style="edgeStyle=orthogonalEdgeStyle;html=1;verticalAlign=bottom;endArrow=open;endSize=8;strokeColor=#ff0000;rounded=0;entryX=0;entryY=0.5;entryDx=0;entryDy=0;" edge="1" source="XKiaGi2St14nV2Fpxqwa-46" parent="1" target="XKiaGi2St14nV2Fpxqwa-50">
          <mxGeometry relative="1" as="geometry">
            <mxPoint x="279.5" y="450" as="targetPoint" />
          </mxGeometry>
        </mxCell>
        <mxCell id="XKiaGi2St14nV2Fpxqwa-51" value="" style="edgeStyle=orthogonalEdgeStyle;html=1;verticalAlign=bottom;endArrow=open;endSize=8;strokeColor=#ff0000;rounded=0;entryX=0.5;entryY=0;entryDx=0;entryDy=0;" edge="1" source="XKiaGi2St14nV2Fpxqwa-50" parent="1" target="XKiaGi2St14nV2Fpxqwa-52">
          <mxGeometry relative="1" as="geometry">
            <mxPoint x="585" y="410" as="targetPoint" />
            <Array as="points">
              <mxPoint x="585" y="370" />
              <mxPoint x="280" y="370" />
            </Array>
          </mxGeometry>
        </mxCell>
        <mxCell id="XKiaGi2St14nV2Fpxqwa-53" value="" style="edgeStyle=orthogonalEdgeStyle;html=1;verticalAlign=bottom;endArrow=open;endSize=8;strokeColor=#ff0000;rounded=0;entryX=0;entryY=0.5;entryDx=0;entryDy=0;" edge="1" source="XKiaGi2St14nV2Fpxqwa-52" parent="1" target="XKiaGi2St14nV2Fpxqwa-54">
          <mxGeometry relative="1" as="geometry">
            <mxPoint x="279.5" y="480" as="targetPoint" />
          </mxGeometry>
        </mxCell>
        <mxCell id="XKiaGi2St14nV2Fpxqwa-58" value="" style="edgeStyle=orthogonalEdgeStyle;html=1;verticalAlign=bottom;endArrow=open;endSize=8;strokeColor=#ff0000;rounded=0;" edge="1" source="XKiaGi2St14nV2Fpxqwa-57" parent="1" target="XKiaGi2St14nV2Fpxqwa-61">
          <mxGeometry relative="1" as="geometry">
            <mxPoint x="525" y="580" as="targetPoint" />
          </mxGeometry>
        </mxCell>
        <mxCell id="XKiaGi2St14nV2Fpxqwa-62" value="" style="edgeStyle=orthogonalEdgeStyle;html=1;verticalAlign=bottom;endArrow=open;endSize=8;strokeColor=#ff0000;rounded=0;entryX=0;entryY=0.5;entryDx=0;entryDy=0;" edge="1" source="XKiaGi2St14nV2Fpxqwa-61" parent="1" target="XKiaGi2St14nV2Fpxqwa-65">
          <mxGeometry relative="1" as="geometry">
            <mxPoint x="279.5" y="580" as="targetPoint" />
            <Array as="points">
              <mxPoint x="280" y="560" />
            </Array>
          </mxGeometry>
        </mxCell>
      </root>
    </mxGraphModel>
  </diagram>
</mxfile>
